<svg width="71" height="60" viewBox="0 0 71 60" fill="none" xmlns="http://www.w3.org/2000/svg">
<path d="M0 53.3762V32.028H3.26889V38.2575H11.0325V41.1178H3.26889V53.7848C3.26889 55.6916 4.22231 56.645 6.12917 56.645H11.4411V58.2795L9.80667 59.5053H6.12917C2.04306 59.5053 0 57.4623 0 53.3762Z" fill="#1360C6"/>
<path d="M19.5562 59.5053C15.4428 59.5053 13.3862 57.4487 13.3862 53.3353C13.3862 49.2219 15.4428 47.1653 19.5562 47.1653H27.0338V43.9781C27.0338 42.0713 26.0803 41.1178 24.1735 41.1178H15.4292V39.4834L17.0637 38.2575H24.1735C28.2596 38.2575 30.3027 40.3006 30.3027 44.3867V59.5053H19.5562ZM16.655 53.7848C16.655 55.6916 17.6085 56.645 19.5153 56.645H27.0338V49.8212H19.5153C17.6085 49.8212 16.655 50.7747 16.655 52.6815V53.7848Z" fill="#1360C6"/>
<path d="M34.225 58.2795V56.645H43.6639C45.5435 56.645 46.4833 55.6916 46.4833 53.7848C46.4833 51.8507 45.7342 50.761 44.236 50.5159L39.3735 49.6987C35.9412 49.1266 34.225 47.2606 34.225 44.1007C34.225 40.2053 36.2681 38.2575 40.3542 38.2575H47.178L48.8124 39.4834V41.1178H40.3133C38.4065 41.1178 37.453 42.0713 37.453 43.9781C37.453 45.6943 38.2566 46.6886 39.8638 46.961L44.7263 47.7782C48.1042 48.323 49.7931 50.2707 49.7931 53.6213C49.7931 57.544 47.7228 59.5053 43.5822 59.5053H35.8594L34.225 58.2795Z" fill="#1360C6"/>
<path d="M53.8383 59.5053V34.3279H57.1072V49.0857L66.9547 38.2575H70.1419L70.4279 38.8705L62.8278 47.1653L71 58.8924L70.714 59.5053H67.5268L60.6621 49.5352L57.1072 53.3762V59.5053H53.8383Z" fill="#1360C6"/>
<path d="M0 30.2948V6.32785C0 2.10928 2.20516 0 6.61548 0H10.5848L12.3489 1.26557V2.953H6.61548C4.55733 2.953 3.52825 3.93733 3.52825 5.906V9.28085H11.9079V12.2338H3.52825V30.2948H0Z" fill="#1360C6"/>
<path d="M38.8049 30.2948V11.812C39.834 10.1246 41.3602 9.63907 44.1534 9.63907H48.9411L50.7128 10.5464V12.2338H45.0235C43.7886 12.2338 42.8918 12.5573 42.3332 13.2041V30.2948H38.8049Z" fill="#1360C6"/>
<path d="M58.6207 30.1744C54.181 30.1744 51.9611 28.051 51.9611 23.8043C51.9611 19.5577 54.181 17.4343 58.6207 17.4343H66.6916V15.1238C66.6916 13.1552 65.6625 12.1708 63.6044 12.1708H54.1663L54.1008 10.2315L56.3232 9.32419H63.5389C67.9492 9.32419 70.2198 11.3271 70.2198 15.5457V30.1744H58.6207ZM55.4894 24.2684C55.4894 26.2371 56.5184 27.2214 58.5766 27.2214H66.6916V20.1764H58.5766C56.5184 20.1764 55.4894 21.1607 55.4894 23.1294V24.2684Z" fill="#1360C6"/>
<path d="M16.9237 30.2765C16.2854 30.2765 15.739 30.0492 15.2845 29.5947C14.8299 29.1401 14.6027 28.5937 14.6027 27.9554V23.3134H16.9237V27.9554H21.5657V30.2765H16.9237ZM14.6027 16.3503V11.7083C14.6027 11.07 14.8299 10.5236 15.2845 10.0691C15.739 9.61452 16.2854 9.38725 16.9237 9.38725H21.5657V11.7083H16.9237V16.3503H14.6027ZM33.1708 16.3503V11.7083H28.5288V9.38725H33.1708C33.8091 9.38725 34.3555 9.61452 34.8101 10.0691C35.2646 10.5236 35.4919 11.07 35.4919 11.7083V16.3503H33.1708Z" fill="#FFD241"/>
<path d="M33.142 30.2764C33.7803 30.2764 34.3267 30.0492 34.7812 29.5946C35.2357 29.1401 35.463 28.5937 35.463 27.9554V23.3134H33.142V27.9554H28.4999V30.2764H33.142Z" fill="#FFD241"/>
<path d="M24.1984 23.1814L20.2649 19.435L21.2142 18.724L24.4367 21.5211L29.9213 16.9534L30.6323 17.9027L24.1984 23.1814Z" fill="#FFD241"/>
</svg>
