<svg width="144" height="31" viewBox="0 0 144 31" fill="none" xmlns="http://www.w3.org/2000/svg">
<path d="M73 24.3482V3H76.2689V9.22956H84.0325V12.0898H76.2689V24.7568C76.2689 26.6636 77.2223 27.6171 79.1292 27.6171H84.4411V29.2515L82.8067 30.4773H79.1292C75.0431 30.4773 73 28.4343 73 24.3482Z" fill="#1360C6"/>
<path d="M92.5562 30.4773C88.4428 30.4773 86.3862 28.4207 86.3862 24.3073C86.3862 20.194 88.4428 18.1373 92.5562 18.1373H100.034V14.9501C100.034 13.0433 99.0803 12.0898 97.1735 12.0898H88.4292V10.4554L90.0637 9.22956H97.1735C101.26 9.22956 103.303 11.2726 103.303 15.3587V30.4773H92.5562ZM89.655 24.7568C89.655 26.6636 90.6085 27.6171 92.5153 27.6171H100.034V20.7933H92.5153C90.6085 20.7933 89.655 21.7467 89.655 23.6535V24.7568Z" fill="#1360C6"/>
<path d="M107.225 29.2515V27.6171H116.664C118.544 27.6171 119.483 26.6636 119.483 24.7568C119.483 22.8227 118.734 21.7331 117.236 21.4879L112.374 20.6707C108.941 20.0986 107.225 18.2326 107.225 15.0727C107.225 11.1773 109.268 9.22956 113.354 9.22956H120.178L121.812 10.4554V12.0898H113.313C111.406 12.0898 110.453 13.0433 110.453 14.9501C110.453 16.6663 111.257 17.6606 112.864 17.933L117.726 18.7502C121.104 19.295 122.793 21.2427 122.793 24.5933C122.793 28.516 120.723 30.4773 116.582 30.4773H108.859L107.225 29.2515Z" fill="#1360C6"/>
<path d="M126.838 30.4773V5.2999H130.107V20.0578L139.955 9.22956H143.142L143.428 9.84248L135.828 18.1373L144 29.8644L143.714 30.4773H140.527L133.662 20.5072L130.107 24.3482V30.4773H126.838Z" fill="#1360C6"/>
<path d="M0 30.2948V6.32785C0 2.10928 2.20516 0 6.61548 0H10.5848L12.3489 1.26557V2.953H6.61548C4.55733 2.953 3.52825 3.93733 3.52825 5.906V9.28085H11.9079V12.2338H3.52825V30.2948H0Z" fill="#1360C6"/>
<path d="M38.8049 30.2948V11.812C39.834 10.1246 41.3602 9.63907 44.1534 9.63907H48.9411L50.7128 10.5464V12.2338H45.0235C43.7886 12.2338 42.8918 12.5573 42.3332 13.2041V30.2948H38.8049Z" fill="#1360C6"/>
<path d="M58.6207 30.1744C54.181 30.1744 51.9611 28.051 51.9611 23.8043C51.9611 19.5577 54.181 17.4343 58.6207 17.4343H66.6916V15.1238C66.6916 13.1552 65.6625 12.1708 63.6044 12.1708H54.1663L54.1008 10.2315L56.3232 9.32419H63.5389C67.9492 9.32419 70.2198 11.3271 70.2198 15.5457V30.1744H58.6207ZM55.4894 24.2684C55.4894 26.2371 56.5184 27.2214 58.5766 27.2214H66.6916V20.1764H58.5766C56.5184 20.1764 55.4894 21.1607 55.4894 23.1294V24.2684Z" fill="#1360C6"/>
<path d="M16.9237 30.2764C16.2854 30.2764 15.739 30.0492 15.2845 29.5946C14.8299 29.1401 14.6027 28.5937 14.6027 27.9554V23.3134H16.9237V27.9554H21.5657V30.2764H16.9237ZM14.6027 16.3503V11.7083C14.6027 11.07 14.8299 10.5236 15.2845 10.069C15.739 9.6145 16.2854 9.38724 16.9237 9.38724H21.5657V11.7083H16.9237V16.3503H14.6027ZM33.1708 16.3503V11.7083H28.5288V9.38724H33.1708C33.8091 9.38724 34.3555 9.6145 34.8101 10.069C35.2646 10.5236 35.4919 11.07 35.4919 11.7083V16.3503H33.1708Z" fill="#FFD241"/>
<path d="M33.142 30.2764C33.7803 30.2764 34.3267 30.0491 34.7812 29.5946C35.2357 29.1401 35.463 28.5937 35.463 27.9554V23.3133H33.142V27.9554H28.4999V30.2764H33.142Z" fill="#FFD241"/>
<path d="M24.1984 23.1814L20.2649 19.435L21.2142 18.724L24.4367 21.5211L29.9213 16.9534L30.6323 17.9027L24.1984 23.1814Z" fill="#FFD241"/>
</svg>
